<svg width="60" height="60" viewBox="0 0 63 60" fill="none" xmlns="http://www.w3.org/2000/svg">
<path d="M25.5938 19.6875C23.8415 19.6875 22.1287 19.1927 20.6718 18.2655C19.2148 17.3384 18.0793 16.0206 17.4088 14.4789C16.7382 12.9371 16.5628 11.2406 16.9046 9.60393C17.2465 7.96721 18.0902 6.4638 19.3292 5.28379C20.5682 4.10378 22.1468 3.30019 23.8654 2.97463C25.5839 2.64907 27.3653 2.81616 28.9841 3.45477C30.6029 4.09338 31.9866 5.17484 32.9601 6.56238C33.9335 7.94992 34.4531 9.58122 34.4531 11.25C34.4531 13.4878 33.5197 15.6339 31.8583 17.2162C30.1968 18.7986 27.9434 19.6875 25.5938 19.6875ZM25.5938 8.4375C25.0097 8.4375 24.4387 8.60245 23.9531 8.9115C23.4675 9.22054 23.089 9.65979 22.8654 10.1737C22.6419 10.6876 22.5834 11.2531 22.6974 11.7987C22.8113 12.3443 23.0926 12.8454 23.5056 13.2387C23.9186 13.6321 24.4448 13.8999 25.0176 14.0085C25.5905 14.117 26.1843 14.0613 26.7239 13.8484C27.2635 13.6355 27.7247 13.2751 28.0492 12.8125C28.3737 12.35 28.5469 11.8063 28.5469 11.25C28.5469 10.5041 28.2358 9.78871 27.6819 9.26127C27.1281 8.73382 26.377 8.4375 25.5938 8.4375ZM8.85939 34.6875C8.85939 35.4334 9.17052 36.1488 9.72434 36.6762C10.2782 37.2037 11.0293 37.5 11.8125 37.5C20.918 37.5 25.4141 33.1711 29.0391 29.6953C29.4599 29.2922 29.866 28.8984 30.2695 28.5234L32.3933 33.1758L23.8711 38.9602C23.4896 39.2211 23.1789 39.565 22.9649 39.9633C22.7509 40.3615 22.6397 40.8026 22.6406 41.25V54.375C22.6406 55.1209 22.9518 55.8363 23.5056 56.3637C24.0594 56.8912 24.8105 57.1875 25.5938 57.1875C26.377 57.1875 27.1281 56.8912 27.6819 56.3637C28.2358 55.8363 28.5469 55.1209 28.5469 54.375V42.6961L34.7903 38.4492L42.5742 55.4953C42.7218 55.8437 42.9412 56.1604 43.2194 56.4268C43.4977 56.6931 43.8291 56.9036 44.1942 57.046C44.5593 57.1883 44.9506 57.2595 45.3451 57.2554C45.7395 57.2513 46.1291 57.172 46.4909 57.0221C46.8526 56.8723 47.1792 56.6549 47.4512 56.3828C47.7233 56.1108 47.9354 55.7896 48.075 55.4382C48.2146 55.0868 48.2788 54.7124 48.2639 54.3369C48.249 53.9615 48.1553 53.5927 47.9883 53.2523L35.6688 26.2688C37.4145 26.3859 39.4653 27.0422 41.8212 28.2375C44.4603 29.6227 46.9234 31.2923 49.1622 33.2133C49.7333 33.7239 50.494 33.9976 51.2769 33.9741C52.0599 33.9506 52.801 33.6318 53.3371 33.0879C53.8733 32.544 54.1607 31.8195 54.136 31.0738C54.1113 30.3282 53.7766 29.6224 53.2055 29.1117C52.5632 28.5375 37.3669 15.1266 27.5896 23.2102C26.62 24.0117 25.7094 24.8883 24.8284 25.7367C21.5504 28.8938 18.457 31.875 11.8125 31.875C11.0293 31.875 10.2782 32.1713 9.72434 32.6988C9.17052 33.2262 8.85939 33.9416 8.85939 34.6875Z" fill="#343330"/>
</svg>
